# xmcd CD database file
#
# Track frame offsets:
#	150
#	14156
#	23382
#	41520
#	55818
#	65825
#	78437
#	100349
#	115469
#	127719
#	143889
#	160701
#	176316
#
# Disc length: 2685 seconds
#
# Revision: 2
# Processed by: cddbd v1.5.2PL0 Copyright (c) Steve Scherf et al.
# Submitted via: CDex 1.50
#
DISCID=a40a7b0d
DTITLE=Les Inrockuptibles présentent - Un Printemps 2007 - Vol.2
DYEAR=2007
DGENRE=Indie Rock
TTITLE0=Digitalism - Pogo (radio edit)
TTITLE1=Pigeon Detectives - Caught In Your Trap
TTITLE2=Bjork - I See Who You Are (Mark Bell Mix)
TTITLE3=Elliott Smith - High Times
TTITLE4=Twisted Charms - Boring Lifestyle
TTITLE5=Bonde Do Role - Divine Gosa
TTITLE6=Justice - B.E.A.T (Extended)
TTITLE7=Malajube - Montréal -40°c
TTITLE8=Axe Riverboy - Roundabout
TTITLE9=Mumm-Ra - Sick Deal
TTITLE10=Black Rebel Motorcycle Club - Not What You Wanted
TTITLE11=Bright Eyes - Cleanse Song
TTITLE12=Arte Radio - Simone et son Phonographe
EXTD=YEAR: 2007
EXTT0=
EXTT1=
EXTT2=
EXTT3=
EXTT4=
EXTT5=
EXTT6=
EXTT7=
EXTT8=
EXTT9=
EXTT10=
EXTT11=
EXTT12=
PLAYORDER=
